<svg height="128" width="128" version="1.1" xmlns="http://www.w3.org/2000/svg">
	<path style="fill:#4D4D4D" d="M95.96,95.96C87.4,104.48,76.08,109.2,64,109.2C51.92,109.2,40.6,104.48,32.04,95.96C23.52,87.4,18.8,76.08,18.8,64C18.8,51.92,23.52,40.6,32.04,32.04C40.6,23.52,51.92,18.8,64,18.8C76.08,18.8,87.4,23.52,95.96,32.04C104.48,40.6,109.2,51.92,109.2,64C109.2,76.08,104.48,87.4,95.96,95.96M114.52,42.68C111.76,36.12,107.8,30.28,102.76,25.24C97.72,20.2,91.88,16.24,85.32,13.48C78.56,10.64,71.4,9.2,64,9.2C56.6,9.2,49.44,10.64,42.68,13.48C36.12,16.24,30.28,20.2,25.24,25.24C20.2,30.28,16.24,36.12,13.48,42.68C10.64,49.44,9.2,56.6,9.2,64C9.2,71.4,10.64,78.56,13.48,85.32C16.24,91.88,20.2,97.72,25.24,102.76C30.28,107.8,36.12,111.76,42.68,114.52C49.44,117.36,56.6,118.8,64,118.8C71.4,118.8,78.56,117.36,85.32,114.52C91.88,111.76,97.72,107.8,102.76,102.76C107.8,97.72,111.76,91.88,114.52,85.32C117.36,78.56,118.8,71.4,118.8,64C118.8,56.6,117.36,49.44,114.52,42.68" />
	<path style="fill:#79D394" d="M64,64L89,107.28L89,107.28C103.96,98.64,114,82.48,114,64C114,45.52,103.96,29.36,89,20.72L89,20.72" />
	<path style="fill:#7F72DB" d="M64,64L89,20.72L89,20.68C74.04,12.08,55.04,11.44,39,20.72C23,29.96,14,46.72,14,64L14,64" />
	<path style="fill:#CE7676" d="M64,64L14,64L14,64C14,81.28,23,98.04,39,107.28C55.04,116.56,74.04,115.92,89,107.32L89,107.28" />
	<path style="fill:#FFFFFF" d="M100.96,57.72L50.96,28.84C49.84,28.2,48.6,27.88,47.32,27.88C46.08,27.88,44.84,28.2,43.72,28.84C41.48,30.16,40.08,32.56,40.08,35.12L40.08,92.88C40.08,95.44,41.48,97.84,43.72,99.16C44.84,99.8,46.08,100.12,47.32,100.12C48.6,100.12,49.84,99.8,50.96,99.16L100.96,70.28C103.2,69,104.6,66.6,104.6,64C104.6,61.4,103.2,59,100.96,57.72" />
	<path style="fill:#CE7676" d="M47.32,92.84L69.2,80.2L61.92,67.56L47.32,67.56" />
	<path style="fill:#79D394" d="M97.32,64L75.44,51.36L68.16,64L75.44,76.64" />
	<path style="fill:#7F72DB" d="M47.32,35.12L47.32,60.4L61.92,60.4L69.2,47.76" />
	<path style="fill:#9FE2AD" d="M75.44,51.36L68.16,64L75.44,76.64L82.76,64" />
	<path style="fill:#E09999" d="M69.2,80.2L61.92,67.56L47.32,67.56L54.64,80.2" />
	<path style="fill:#9797F2" d="M61.92,60.4L69.2,47.76L54.56,47.76L47.32,60.4" />
</svg>
